<svg width="1732" height="538" viewBox="0 0 1732 538" fill="none" xmlns="http://www.w3.org/2000/svg">
<g clip-path="url(#clip0)">
<rect width="1732" height="538" fill="white"/>
<g clip-path="url(#clip1)">
<path d="M1817.49 389.329C1817.26 389.375 1816.82 389.47 1816.59 389.516C1816.43 389.935 1816.28 390.358 1816.16 390.785C1815.92 390.865 1815.45 391.017 1815.21 391.094C1814.78 390.469 1814.61 389.348 1813.67 389.39C1811.63 389.333 1809.63 390.114 1807.58 389.726C1807.89 386.862 1808.4 383.896 1805.33 384.046C1802.2 384.058 1799.07 383.944 1795.96 384.332C1794.35 384.591 1792.75 383.841 1791.18 384.378C1789.19 384.988 1787.11 384.779 1785.08 384.821C1783.66 384.76 1782.55 385.988 1781.12 385.751C1780.13 385.58 1779.42 386.388 1778.63 386.803C1778.62 387.649 1778.55 388.503 1778.7 389.353C1779.05 390.111 1779.61 390.801 1779.78 391.655C1777.8 391.693 1775.8 391.533 1773.88 392.067C1774 392.936 1774.31 393.763 1774.7 394.556C1773.93 395.897 1773.29 395.592 1775.21 397.236C1774.43 397.32 1773.66 397.343 1772.92 397.27C1773.77 397.998 1774.58 398.795 1775.55 399.408C1775.02 399.763 1774.49 400.098 1774 400.445C1774.47 400.949 1774.99 401.456 1775.49 401.974C1775.1 402.184 1774.74 402.401 1774.4 402.626C1775.23 403.724 1774.23 405.062 1774.96 406.19C1774.7 406.552 1774.43 406.911 1774.2 407.273C1774.61 407.699 1775.04 408.13 1775.49 408.561C1775.12 408.927 1774.75 409.289 1774.41 409.659C1774.79 410.074 1775.18 410.479 1775.61 410.894C1775.21 411.176 1774.77 411.443 1774.41 411.725C1774.7 412.362 1775.26 412.758 1775.9 413.048C1775.37 413.368 1774.85 413.7 1774.35 414.036C1774.65 414.581 1774.97 415.133 1775.28 415.705C1774.73 415.618 1774.23 415.526 1773.74 415.43C1774.14 416.002 1774.51 416.597 1774.92 417.195C1776.01 417.404 1777.1 417.66 1778.2 417.961C1778.05 418.304 1777.94 418.654 1777.84 419.013C1777.12 418.407 1776.22 418.231 1775.32 418.319C1775.2 418.804 1775.08 419.291 1775 419.783C1775 419.783 1753.26 419.523 1748.95 419.844C1749.45 418.677 1748.95 417.618 1748.05 416.844C1747.72 416.838 1737.58 416.795 1737.11 416.898C1737.29 417.839 1737.52 418.773 1737.74 419.719C1736.97 419.12 1736.43 417.759 1735.28 418.106C1733.59 418.506 1731.9 417.763 1730.21 417.976C1721.48 418.803 1720.66 417.627 1718.59 419.722C1718.59 419.722 1709.82 419.785 1706.18 419.627C1704.23 419.772 1702.3 420.389 1700.35 420.023C1698.61 419.73 1696.79 420.137 1695.11 419.536C1693.46 418.984 1693.71 419.764 1684.48 419.886C1671.33 419.871 1674.9 420.224 1671.4 418.667C1671.46 417.939 1671.49 417.21 1671.55 416.49C1670.25 415.827 1668.79 416.204 1667.43 416.059C1666.83 415.335 1667.02 414.321 1666.91 413.467C1664.57 412.423 1662.11 413.608 1659.7 413.433C1657.98 413.589 1656.35 413.051 1654.71 412.708C1653.17 412.884 1651.69 413.429 1650.15 413.516C1648.88 413.516 1648.01 414.611 1646.8 414.835C1646.82 415.217 1647.28 431.809 1647.15 432.27C1647.37 432.644 1647.82 432.991 1647.71 433.502C1646.9 440.761 1646.93 438.899 1642.12 437.905C1642.61 438.153 1643.12 438.385 1643.65 438.625C1643.04 439.605 1642.16 441.473 1640.82 440.318C1640.36 440.493 1639.89 440.668 1639.47 440.855C1638.98 440.596 1638.52 440.348 1638.08 440.101C1638.74 436.525 1638.12 436.112 1637.96 424.157C1637.22 424.015 1636.51 423.661 1635.78 423.806C1633.48 424.263 1631.13 424.05 1628.82 424.081C1627.26 424.191 1626.25 422.857 1625.22 421.919C1623.78 421.71 1621.83 421.321 1621.03 422.895C1619.36 422.991 1617.68 422.849 1616.03 422.994C1615.59 423.36 1615.55 423.959 1615.38 424.462C1613.38 424.474 1611.38 424.405 1609.4 424.542C1609.64 425.706 1610.19 433.091 1609.83 434.811C1603.89 432.696 1608.37 435.337 1601.76 435.543C1601.1 435.479 1600.27 435.703 1599.92 435.017C1599.42 430.484 1598.44 378.655 1597.96 376.43C1584.6 376.262 1591.65 376.078 1586.5 375.431C1584.41 375.835 1582.32 376.32 1580.2 376.381C1579.64 376.144 1579.68 375.42 1579.46 374.97C1578.47 374.848 1577.49 374.593 1576.51 374.791C1574.05 375.136 1561.85 374.999 1561.47 375.031C1561.48 375.519 1561.5 376.003 1561.55 376.503C1560.97 376.407 1560.37 376.323 1559.93 375.95C1558.39 374.638 1556.5 376.194 1554.86 376.381C1554.48 376.378 1546.75 378.144 1543.08 377.986C1541.67 381.205 1545 413.134 1544.56 432.402C1543.74 432.566 1542.94 432.741 1542.14 432.851C1539.23 426.247 1540.64 373.953 1538.35 368.962C1534.32 368.742 1530.28 368.826 1526.25 368.798C1524.82 368.673 1523.68 369.812 1522.24 369.595C1522.26 368.924 1522.28 368.253 1522.23 367.59C1523.43 367.231 1524.73 367.331 1525.93 366.885C1525.04 361.181 1526.17 359.879 1524.59 358.133C1523.25 358.438 1521.87 358.571 1520.51 358.503C1520.5 358.084 1520.5 357.668 1520.53 357.257C1520.91 357.242 1521.3 357.23 1521.72 357.222C1520.18 355.4 1520.39 356.472 1520.56 353.304C1519.81 352.611 1519.43 351.699 1519.09 350.781C1518.26 349.984 1517.5 351.04 1516.95 351.585C1515.36 351.844 1514.14 350.313 1512.56 350.453C1511.55 350.285 1510.76 351.006 1509.88 351.311C1509.11 351.101 1508.49 350.335 1507.66 350.537C1505.56 350.922 1503.51 351.768 1501.34 351.517C1499.87 351.303 1498.89 352.733 1497.69 353.312C1497.65 355.203 1497.56 357.093 1497.46 358.984C1495.88 359.141 1494.37 359.617 1492.81 359.823C1492.5 361.934 1492.92 364.053 1492.9 366.173C1492.98 366.779 1492.73 367.812 1493.61 367.923C1494.61 368.071 1495.65 368.091 1496.64 368.426C1496.45 368.681 1496.26 368.941 1496.1 369.2C1496.35 369.444 1496.62 369.692 1496.91 369.947C1496.51 370.336 1496.18 370.782 1495.73 371.079C1494.87 371.033 1494.12 370.592 1493.31 370.473C1491.7 370.18 1490.03 370.187 1488.51 369.574C1487.76 369.151 1486.98 369.677 1486.25 369.757C1485.33 369.791 1484.45 369.704 1483.57 369.734C1484.44 369.948 1485.65 369.578 1486.28 370.417C1482.23 370.058 1478.22 370.893 1474.18 370.943C1472.77 370.917 1471.44 371.351 1470.19 371.908C1470.3 371.226 1470.65 370.638 1471.19 370.196C1469.86 370.737 1468.41 370.851 1467.03 371.13C1466.99 371.48 1466.97 371.834 1466.95 372.189C1466.26 372.018 1465.57 371.824 1464.92 371.629C1463.73 373.253 1461.63 372.78 1459.97 373.44C1460.03 374.709 1460.43 376.021 1460.06 377.274C1459.35 377.956 1458.43 378.33 1457.58 378.776C1457.61 380.007 1458.41 381.535 1457.26 382.496C1456.25 383.316 1454.93 383.803 1453.62 383.673C1453.61 382.191 1453.81 380.548 1452.73 379.362C1452.96 378.875 1453.21 378.394 1453.47 377.914C1452.95 377.41 1452.41 376.938 1451.88 376.48C1452.08 376.156 1452.3 375.84 1452.54 375.527C1452.26 375.078 1452 374.632 1451.75 374.186C1452.62 372.874 1451.63 371.342 1452.26 369.955C1450.79 368.362 1448.58 368.907 1446.68 369.109C1446.65 368.373 1446.66 367.641 1446.7 366.917C1444.76 365.237 1442.02 366.124 1439.82 366.708C1439.58 366.159 1439.36 365.61 1439.16 365.069C1437.45 365.156 1435.74 365.343 1434.07 364.988C1432.99 318.737 1432.08 321.456 1433.3 319.312C1431.37 318.632 1411.7 314.435 1409.66 314.673C1406.71 320.91 1404.63 335.505 1403.79 337.247C1399.22 386.698 1408.65 371.359 1394.01 376.088C1394.01 377.567 1393.99 379.05 1393.97 380.533C1392.62 380.837 1391.25 381.04 1389.97 381.539C1390.04 382.112 1390.52 409.157 1390.53 409.25C1389.49 409.23 1388.47 409.128 1387.5 408.835C1387.74 408.351 1388.02 407.882 1388.3 407.413C1387.91 407.005 1387.53 406.624 1387.23 406.173C1387.34 405.647 1387.93 405.408 1388.29 405.034C1387.86 404.531 1387.44 404.028 1387.05 403.517C1387.31 403.101 1387.6 402.693 1387.91 402.289C1387.49 401.79 1387.08 401.29 1386.7 400.787C1387.08 400.422 1387.49 400.071 1387.91 399.724C1387.48 399.228 1387.07 398.729 1386.69 398.226C1386.97 397.818 1387.28 397.418 1387.6 397.018C1387.28 396.61 1386.96 396.21 1386.68 395.813C1386.92 395.314 1387.2 394.83 1387.49 394.349C1387.22 393.961 1386.93 393.591 1386.77 393.168C1386.83 392.562 1387.3 392.127 1387.62 391.635C1387.16 391.227 1386.71 390.827 1386.29 390.427C1386.67 390.03 1387.09 389.645 1387.52 389.268C1387.13 388.784 1386.73 388.312 1386.36 387.839C1386.68 387.385 1387.03 386.943 1387.38 386.494C1387 386.056 1386.63 385.617 1386.28 385.182C1386.63 384.751 1387 384.336 1387.37 383.921C1386.99 383.486 1386.6 383.06 1386.24 382.632C1386.55 382.213 1386.88 381.801 1387.22 381.39C1386.79 380.883 1386.36 380.379 1385.96 379.877C1386.36 379.484 1386.78 379.099 1387.21 378.714C1386.76 378.325 1386.32 377.944 1385.9 377.559C1386.16 377.037 1386.44 376.53 1386.74 376.026C1386.57 375.542 1386.42 375.062 1386.29 374.586C1386.47 374.22 1386.69 373.865 1386.91 373.507C1386.57 373.004 1386.25 372.493 1385.97 371.975C1386.3 371.609 1386.67 371.254 1387.02 370.889C1386.63 370.427 1386.24 369.966 1385.89 369.505C1386.36 369.302 1386.86 369.112 1387.37 368.925C1386.97 368.053 1386.33 367.355 1385.56 366.817C1385.97 366.458 1386.4 366.116 1386.85 365.776C1386.41 365.258 1385.97 364.751 1385.56 364.24C1385.95 363.875 1386.37 363.52 1386.8 363.166C1385.58 360.735 1386.07 363.231 1386.7 358.885C1386.29 358.996 1385.9 359.11 1385.51 359.228C1386.37 358.233 1387.12 356.991 1388.55 356.819C1388.66 356.579 1388.78 356.343 1388.92 356.11C1387.63 355.934 1386.8 354.989 1386.09 354.01C1386.34 353.621 1386.7 353.274 1386.83 352.809C1386.62 352.184 1385.88 351.899 1385.72 351.277C1386.02 350.85 1386.41 350.495 1386.8 350.126C1386.43 349.737 1386.04 349.379 1385.77 348.941C1385.7 348.247 1386.57 348.14 1386.99 347.748C1386.49 347.058 1385.82 346.539 1385.18 346.006C1385.71 345.632 1386.26 345.266 1386.8 344.881C1386.34 344.462 1385.89 344.047 1385.46 343.627C1385.82 343.143 1386.36 342.743 1386.48 342.114C1386.17 341.588 1385.7 341.211 1385.3 340.791C1385.65 340.276 1386.04 339.804 1386.49 339.358C1386.08 338.831 1385.64 338.336 1385.2 337.86C1385.55 337.387 1385.93 336.926 1386.32 336.465C1385.95 336.042 1385.49 335.68 1385.27 335.173C1385.19 334.46 1385.7 333.861 1385.96 333.229C1384.99 333.023 1384.01 332.905 1383.04 332.809C1383.23 330.796 1382.53 328.559 1383.71 326.756C1379.22 325.75 1380.48 324.954 1377.45 325.426C1376.53 326.501 1375.05 326.055 1373.83 326.12C1373.51 325.048 1373.46 323.924 1373.22 322.845C1372.07 321.938 1370.55 322.86 1369.28 322.967C1368.08 322.628 1367.21 321.656 1366.1 321.18C1365.33 321.141 1364.6 321.362 1363.88 321.511C1362.89 321.507 1362.83 322.78 1362.01 323.078C1361.63 323.248 1357.14 326.715 1352.79 325.422C1348.08 325.33 1343.24 324.938 1338.71 326.505C1338.72 327.629 1338.73 328.758 1338.73 329.886C1339.44 329.947 1340.27 329.767 1340.89 330.274C1336.32 330.688 1335.43 328.746 1333.84 331.532C1334.06 333.644 1334.29 336.049 1332.93 337.848C1332.49 338.416 1332.25 339.266 1331.47 339.419C1330.62 339.689 1329.71 340.101 1329.37 340.981C1329.52 343.276 1329.69 345.605 1329.38 347.896C1328.92 348.528 1328.33 349.051 1327.89 349.684C1328.15 350.092 1328.45 350.503 1328.76 350.915C1327.83 352.287 1327.94 353.945 1327.94 355.527C1328.52 355.764 1329.1 356.003 1329.69 356.274C1329.18 356.587 1328.68 356.892 1328.2 357.212C1328.16 358.779 1327.99 360.361 1328.33 361.916C1325.59 362.099 1322.84 362.255 1320.11 361.977C1320.22 359.861 1320.42 351.849 1318.86 349.874C1318.21 347.515 1318.73 345.01 1318.47 342.602C1318 341.626 1316.85 341.37 1315.9 341.241C1315.52 340.253 1315.59 339.194 1315.73 338.172C1315.99 336.446 1315.47 334.745 1315.42 333.026C1314.56 332.798 1313.7 332.607 1312.84 332.466C1312.79 329.729 1312.96 326.981 1312.35 324.29C1311.57 324.065 1310.8 323.848 1310.03 323.638C1310.05 323.078 1310.08 322.518 1310.13 321.961C1308.74 321.443 1307.31 320.848 1305.81 321.035C1302.86 321.323 1296.77 320.714 1294.31 322.464C1293.93 323.124 1293.69 323.855 1293.26 324.484C1291.82 325.452 1290.29 324.16 1288.86 323.84C1288.96 323.31 1289.06 322.784 1289.18 322.262C1287.15 321.396 1284.83 321.778 1282.69 321.514C1281.42 321.271 1280.2 321.793 1278.96 321.85C1277.56 320.889 1275.88 320.455 1274.58 319.361C1274.76 319.175 1275.11 318.797 1275.29 318.61C1274.89 318.191 1274.5 317.776 1274.12 317.367C1274.34 315.717 1273.88 314.07 1273.92 312.416C1273.97 311.7 1273.44 310.964 1272.71 310.949C1271.77 310.835 1270.95 310.396 1270.14 309.969C1270.09 308.227 1270.15 306.481 1270.11 304.743C1269.82 300.691 1267.61 302.088 1267.09 302.136C1266.21 302.467 1265.29 302.3 1264.41 302.117C1261.96 301.572 1259.4 301.636 1256.92 301.888C1255.56 302.818 1253.89 302.281 1252.39 302.631C1251.88 303.714 1251.64 304.953 1250.42 305.46C1250.2 305.181 1250.01 304.903 1249.84 304.621C1249.33 299.609 1249.59 294.562 1249.55 289.531C1246.16 288.232 1237.36 288.584 1234.05 287.122C1230.48 285.578 1226.14 286.078 1222.88 288.079C1217.53 293.8 1218.65 295.05 1218.23 298.988C1217.79 300.036 1217.15 300.989 1216.63 301.995C1217.68 302.01 1218.76 302.152 1219.47 303.017C1216.76 304.5 1213.91 305.914 1210.86 306.486C1209.86 308.914 1207.68 310.507 1205.58 311.918C1206.12 312.68 1205.66 313.5 1205.36 314.258C1204.87 313.732 1204.47 313.157 1204.14 312.551C1202.39 312.768 1200.64 313.043 1198.87 312.932C1197.68 312.81 1197.18 314.278 1196.08 314.461C1195.07 314.663 1194.19 315.212 1193.31 315.704C1191.95 315.837 1190.77 314.907 1189.48 314.637C1189.37 315.323 1189.28 316.013 1189.2 316.706C1186.86 315.776 1185.28 313.649 1183.12 312.433C1182.54 312.235 1181.94 312.445 1181.38 312.46C1180.91 319.652 1182.01 330.341 1181.53 335.186C1181.27 335.559 1180.77 335.498 1180.4 335.589C1180.19 335.082 1180 334.587 1179.81 334.091C1178.3 334.789 1176.76 335.433 1175.27 336.146C1175 337.865 1175.22 339.591 1175.45 341.299C1174.53 342.973 1174.96 344.901 1175.21 346.689C1173.18 347.639 1170.89 347.634 1168.77 348.252C1168.31 347.002 1167.75 345.778 1167.48 344.47C1168.57 344.425 1169.67 344.413 1170.77 344.364C1170.47 343.228 1169 343.437 1168.1 343.152C1167.82 342.694 1167.55 342.252 1167.28 341.814C1167.73 341.379 1168.19 340.945 1168.66 340.51C1168.3 340.049 1167.95 339.591 1167.61 339.137C1168.27 338.379 1168.3 337.407 1168.06 336.473C1169.14 336.45 1170.23 336.4 1171.27 336.058C1170.58 334.937 1169.04 335.143 1167.94 334.724C1169.02 332.139 1169.04 333.053 1167.92 331C1168.4 330.63 1168.89 330.264 1169.39 329.894C1169.44 328.923 1169.51 327.901 1169 327.032C1167.77 326.052 1166.82 324.638 1165.2 324.291C1164.16 319.31 1164.2 326.943 1164.86 314.472C1163.6 314.064 1162.39 313.588 1161.19 313.088C1157.93 315.238 1157.57 313.486 1153.5 314.212C1149.88 313.473 1150.8 314.376 1140.46 314.181C1140.31 313.991 1140.17 313.816 1140.04 313.648C1138.43 313.827 1136.81 313.88 1135.2 313.842C1135.39 310.915 1134.65 307.839 1135.76 305.037C1136.42 303.391 1135.07 301.87 1135.18 300.223C1135.33 292.031 1134.73 293.883 1134.41 281.911C1132.03 281.88 1129.65 281.915 1127.27 281.908C1127.32 281.717 1127.41 281.332 1127.46 281.142C1126.62 281.13 1125.79 281.122 1124.97 281.119C1124.73 280.658 1124.52 280.2 1124.32 279.743C1124.14 279.705 1123.76 279.629 1123.57 279.59C1124.21 278.95 1124.26 278.084 1123.45 277.558C1122.95 278.058 1122.61 278.9 1121.8 278.866C1120.4 279.297 1118.91 278.328 1117.64 279.292C1117.42 278.842 1116.66 254.823 1116.83 251.913C1116.56 251.642 1116.3 251.375 1116.06 251.108C1115.55 251.34 1115.05 251.573 1114.57 251.801C1114.18 249.614 1114.71 247.361 1114.17 245.207C1111.49 245.051 1113.56 248.458 1112.92 253.147C1112.68 254.923 1113.31 256.658 1113.25 258.434C1113.67 266.175 1113.23 264.371 1113.46 277.241C1112.96 277.298 1112.49 277.359 1112.02 277.42C1111.87 278.034 1111.77 278.663 1111.52 279.242C1110.57 279.402 1110.84 278.209 1110.61 277.645C1106.3 278.409 1108.85 279.776 1103.88 277.565C1103.09 278.567 1102.63 279.738 1102.46 280.995C1100.13 283.372 1098.31 279.582 1093.1 281.906C1093.52 282.161 1093.97 282.417 1094.42 282.672C1093.88 283.339 1093.39 284.037 1093.04 284.81C1092.65 284.891 1092.27 284.975 1091.91 285.058C1091.19 288.539 1093.46 286.403 1091.76 289.266C1092 290.686 1092.05 299.845 1092.21 300.911C1093.18 306.23 1091.38 311.636 1093.54 312.712C1092.56 314.439 1092.95 316.623 1093.47 318.452C1089.5 319.213 1093.16 317.739 1087.99 320.861C1087.91 321.334 1087.85 321.811 1087.8 322.287C1068.58 322.688 1078.98 321.957 1070.93 321.803C1070.57 321.276 1070.22 320.739 1069.88 320.213C1069.28 320.865 1068.68 321.57 1067.78 321.757C1067.12 325.511 1068.19 329.27 1067.86 333.032C1067.75 334.515 1067.1 335.956 1067.45 337.462C1067.11 337.824 1066.79 338.197 1066.49 338.578C1066.88 339.142 1067.28 339.733 1067.61 340.354C1067.15 340.629 1066.7 340.914 1066.28 341.216C1066.79 341.631 1067.32 342.047 1067.85 342.485C1067.44 342.957 1067.03 343.426 1066.64 343.899C1067 344.345 1067.36 344.806 1067.71 345.279C1066.74 345.446 1065.72 345.568 1064.93 346.189C1062.91 347.357 1065.34 357.063 1063.54 364.783C1062.45 364.954 1061.35 365.046 1060.28 365.183C1060.3 366.89 1061.19 396.914 1060.84 399.984C1060.41 400.216 1059.99 400.449 1059.57 400.681C1059.51 401.314 1059.43 401.947 1059.33 402.576C1058.05 402.37 1056.75 402.339 1055.47 402.298C1054.99 399.285 1054.92 380.632 1054.89 380.251C1053.78 379.912 1052.64 379.805 1051.5 379.782C1051.11 379.245 1050.69 378.753 1050.24 378.295C1051.13 377.243 1050.55 376.047 1050.3 374.891C1050.31 374.888 1049.59 366.409 1050.29 362.713C1049.42 362.008 1048.51 360.975 1047.27 361.295C1046.17 361.516 1045.15 360.933 1044.09 360.819C1043.41 360.953 1042.82 361.353 1042.15 361.418C1026.65 361.767 1037.43 362.986 1029.57 361.216C1029.83 360.979 1030.11 360.747 1030.41 360.518C1029.33 359.351 1029.72 357.675 1029.61 356.233L1029.13 312.204C1029.11 310.718 1028.51 309.292 1028.7 307.794C1028.3 306.4 1028.96 305.024 1028.56 303.625C1028.72 302.694 1028.81 301.757 1028.16 300.987C1028.39 300.956 1028.84 300.903 1029.06 300.873C1028.24 298.033 1029 295.075 1028.46 292.209C1028.19 290.463 1029.13 288.44 1027.81 286.976C1028.14 286.782 1028.48 286.587 1028.84 286.397C1028.51 286.008 1028.19 285.626 1027.88 285.249C1029.24 283.279 1027.64 280.95 1028.42 278.876C1027.16 276.869 1027.9 277.314 1028.51 276.101C1028.16 275.807 1027.82 275.521 1027.49 275.243C1027.64 274.721 1027.8 274.198 1027.97 273.68C1027.52 273.589 1027.08 273.501 1026.65 273.422C1026.31 272.697 1025.97 271.977 1025.66 271.245C1026.72 270.719 1027.78 270.197 1028.82 269.633C1028.83 269.389 1028.83 268.9 1028.84 268.657C1025.87 268.001 1022.84 268.192 1019.84 268.089C1019.15 267.673 1018.37 267.106 1017.59 267.635C1016.02 268.534 1014.18 268.016 1012.48 268.252C1010.57 268.706 1008.67 267.943 1006.75 268.206C1006.97 268.606 1007.21 268.999 1007.47 269.395C1006.02 269.165 1005.48 268.314 1002.57 269.986C1002.12 270.482 1001.76 271.042 1001.37 271.579C1002.96 272.228 1004.66 272.251 1006.33 271.965C1006.32 272.43 1006.32 272.895 1006.33 273.367C1004.88 273.356 1004.23 274.674 1003.38 275.604C1003.99 275.711 1004.62 275.78 1005.26 275.841C1004.72 276.234 1004.19 276.634 1003.68 277.049C1003.58 278.605 1003.73 280.182 1003.42 281.723C1003.72 281.948 1004.03 282.18 1004.34 282.416C1004.02 283.228 1003.65 284.017 1003.25 284.795C1003.72 284.936 1004.2 285.088 1004.69 285.252C1004.27 285.538 1003.86 285.828 1003.46 286.121C1003.73 286.289 1004.03 286.457 1004.33 286.628C1003.91 286.929 1003.7 287.383 1003.55 287.856C1003.89 287.928 1004.58 288.081 1004.92 288.157C1004.5 288.721 1004.07 289.273 1003.65 289.838C1004.05 290.402 1004.47 290.954 1004.92 291.504C1004.5 292.014 1004.08 292.514 1003.64 292.998C1004.01 293.436 1004.39 293.879 1004.77 294.325C1004.36 294.748 1003.94 295.156 1003.61 295.64C1003.79 296.596 1005.01 296.181 1005.71 296.421C1005.3 297.477 1003.66 297.355 1003.54 298.598C1004.39 298.655 1005.25 298.693 1006.12 298.773C1005.37 299.368 1004.53 299.84 1003.77 300.397C1003.3 301.247 1004.57 301.681 1005.03 302.193C1004.82 302.802 1004.42 303.287 1003.93 303.679C1004.12 303.812 1004.5 304.079 1004.7 304.213C1004.44 304.803 1004.15 305.383 1003.8 305.924C1004.63 307.11 1003.67 308.634 1004.55 309.797C1004.4 310.224 1004.1 310.64 1004.18 311.112C1004.42 311.555 1005 311.84 1005.08 312.37C1004.87 312.831 1004.56 313.231 1004.28 313.647C1004.46 314.097 1004.65 314.543 1004.84 315C1004.59 315.408 1004.36 315.824 1004.14 316.24C1004.39 316.636 1004.67 317.036 1004.95 317.436C1004.7 317.909 1004.47 318.386 1004.26 318.873C1004.83 319.811 1004.68 320.875 1004.41 321.884C1004.65 322.174 1004.91 322.467 1005.18 322.765C1004.84 323.173 1004.51 323.581 1004.2 323.996C1004.46 324.545 1004.74 325.09 1005.04 325.639C1004.75 325.921 1004.47 326.207 1004.21 326.497C1004.61 327.461 1004.63 328.498 1004.4 329.516C1004.93 329.71 1005.46 329.901 1006.01 330.11C1005.5 330.739 1004.92 331.307 1004.35 331.875C1004.88 332.268 1005.43 332.66 1005.97 333.068C1005.51 333.461 1005.04 333.838 1004.58 334.223C1004.6 334.418 1004.66 334.811 1004.68 335.005C1005.22 335.138 1005.76 335.264 1006.33 335.401C1005.8 336.004 1004.39 336.4 1004.86 337.372C1005.32 337.639 1006.17 337.52 1006.3 338.199C1005.8 338.645 1005.25 339.034 1004.72 339.442C1005.1 339.819 1005.5 340.204 1005.91 340.589C1005.06 341.557 1005.64 342.78 1005.42 343.901C1005.13 344.972 1005.77 346.013 1005.5 347.095C1005.64 348.509 1004.9 350.068 1005.91 351.288C1005.57 351.711 1005.25 352.134 1004.93 352.565C1005.84 353.477 1006.46 352.895 1004.97 355.352C1005.28 355.733 1005.6 356.122 1005.93 356.514C1005.67 356.891 1005.11 357.23 1005.3 357.76C1005.49 359.643 1005.89 361.576 1005.44 363.447C1005.7 371.614 1005.46 375.302 1005.46 375.302C1004.62 375.267 1003.71 375.382 1003.03 374.802C1002.13 374.07 1000.92 373.743 1000.25 372.756C1000.65 372.402 1001.07 372.058 1001.5 371.712C1001.01 371.159 1000.3 370.831 999.881 370.244C999.599 369.34 999.649 368.392 999.675 367.465C999.142 367.202 998.612 366.958 998.085 366.733C998.143 365.868 998.039 365.003 997.963 364.149C998.451 364.035 998.981 363.935 999.492 363.817C998.993 363.737 998.505 363.661 998.032 363.592C998.014 362.459 998.028 359.627 997.01 359.495C994.925 359.003 992.886 358.302 990.728 358.211C990.535 356.082 989.512 303.912 989.512 303.912C989.622 302.372 989.691 300.745 988.932 299.346C987.979 298.835 986.733 299.143 985.715 298.72C986.027 298.099 986.337 297.471 986.622 296.829C987.926 296.464 989.294 296.25 990.484 295.549C988.999 293.842 982.516 295.234 978.754 293.479C976.651 292.969 969.036 294.087 965.531 295.747C965.539 295.973 965.55 296.422 965.557 296.647C966.705 296.978 968.038 297.31 968.534 298.545C967.558 298.899 966.384 299.143 965.778 300.051C966.129 300.127 966.83 300.276 967.181 300.348C966.598 300.863 965.984 301.331 965.374 301.797C965.675 302.411 966.193 302.857 966.757 303.249C966.208 303.249 965.67 303.257 965.145 303.264C965.871 304.801 966.065 310.127 966.018 310.673C966.338 310.894 966.669 311.12 967.012 311.348C966.502 311.741 965.99 312.137 965.503 312.537C965.796 313.448 966.456 314.116 967.333 314.501C966.811 314.92 966.288 315.343 965.8 315.785C966.151 316.257 966.536 316.726 966.928 317.191C966.688 317.599 966.467 318.011 966.268 318.434C966.539 318.956 966.814 319.489 967.096 320.027C966.78 320.431 966.482 320.839 966.193 321.25C966.745 321.521 967.302 321.815 967.855 322.116C967.275 322.604 966.696 323.092 966.193 323.648C966.463 323.729 967.012 323.892 967.283 323.976C966.894 325.295 966.795 326.663 966.84 328.036C966.604 328.951 966.387 329.899 967.011 330.727C966.748 331.184 966.489 331.642 966.257 332.114C966.89 332.496 967.541 332.869 968.247 333.155C967.736 333.349 967.233 333.543 966.753 333.764C967.138 334.95 967.225 336.276 966.292 337.241C966.631 337.695 966.989 338.148 967.363 338.602C966.844 339.135 966.337 339.68 965.838 340.222C966.155 340.686 966.498 341.155 966.875 341.598C966.738 341.739 966.456 342.024 966.315 342.166C967.149 346.367 966.578 365.946 966.613 367.514C964.501 367.472 962.385 367.51 960.304 367.838C960.205 369.157 960.209 370.487 960.403 371.799C959.954 371.837 959.515 371.879 959.088 371.924C959.29 372.858 959.427 373.807 959.462 374.772C958.802 374.84 958.154 374.909 957.521 374.981C957.758 377.139 956.828 379.2 957.052 381.358C957.544 382.879 956.759 384.484 957.578 385.955C956.744 386.211 955.516 386.748 954.925 385.837C954.387 381.78 955.122 373.753 954.826 362.821C954.235 362.238 953.343 362.154 952.623 361.83C952.589 360.542 952.592 359.25 952.531 357.965C950.728 359.891 951.758 360.423 952.139 361.987C949.199 362.704 938.856 361.981 923.637 362.364C920.003 362.142 922.41 371.976 921.521 381.987C920.027 382.505 918.456 382.692 916.943 383.1C917.267 383.653 917.618 384.209 917.949 384.781C917.202 384.914 916.47 385.154 915.716 385.085C913.981 384.773 912.395 385.859 910.668 385.787C908.313 385.703 905.961 385.604 903.613 385.512C904.002 378.004 903.02 359.387 903.376 355.597C903.197 355.43 902.838 355.09 902.66 354.923C902.633 355.849 902.629 356.779 902.614 357.709C902.438 357.717 902.084 357.729 901.909 357.736C901.65 346.958 902.519 350.923 900.788 347.013C901.642 347.364 902.515 347.703 903.422 347.943C902.759 346.763 901.699 346.959 902.645 341.78C902.149 341.715 901.669 341.658 901.196 341.612C900.784 339.721 900.708 337.797 900.677 335.872C897.555 334.841 899.871 334.432 892.738 334.107V334.869C894.236 334.945 896.012 334.519 897.171 335.75C894.071 336.181 890.904 335.735 887.843 336.364C887.424 336.105 887.122 335.529 886.593 335.602C882.751 335.688 883.841 336.069 883.688 341.338C883.25 341.952 882.354 342.005 881.729 342.341C881.474 344.029 880.967 345.901 881.984 347.448C881.53 347.471 881.092 347.498 880.665 347.529C879.343 349.073 879.716 351.188 879.796 353.056C880.181 353.331 880.589 353.609 881.001 353.887C880.307 354.444 880.002 355.271 879.728 356.083C880.155 356.381 880.601 356.682 881.05 356.986C880.627 357.41 880.211 357.829 879.804 358.252C879.689 364.086 880.209 384.076 880.143 392.428C874.571 392.501 868.993 392.36 863.424 392.489C863.348 402.381 863.714 412.261 863.714 422.156C862.578 422.164 861.461 421.977 860.336 421.927C858.972 422.042 857.607 422.175 856.242 422.148C855.232 421.012 855.617 419.579 855.781 418.237C855.727 417.856 853.89 353.638 855.095 350.201C855.8 348.277 854.435 346.389 854.618 344.43C854.493 343.211 854.977 341.773 854.115 340.752C853.459 339.951 852.761 339.189 852.182 338.339C851.965 338.331 851.534 338.312 851.316 338.304C851.16 340.111 850.829 341.906 850.413 343.675C849.437 343.652 848.472 343.644 847.512 343.641C847.191 343.203 846.883 342.764 846.582 342.334C846.342 342.383 845.854 342.486 845.614 342.539C845.541 342.825 845.397 343.397 845.324 343.687C843.879 343.374 842.415 343.397 840.978 343.69C840.742 343.221 840.532 342.757 840.338 342.288C839.637 342.356 838.939 342.432 838.26 342.52C837.528 341.616 837.65 340.473 838.009 339.455C837.639 339.447 837.284 339.444 836.937 339.444C837.074 340.217 837.334 341.075 836.724 341.727C834.605 344.216 835.388 343.301 830.335 343.694C829.836 343.088 829.279 342.512 828.482 342.39C828.402 342.729 828.242 343.412 828.163 343.755C827.305 343.591 826.528 343.198 825.7 342.981C824.991 343.282 824.355 343.717 823.703 344.113C823.56 345.101 823.833 362.79 823.848 363.176C822.647 363.244 821.507 362.223 820.36 362.775C818.656 363.458 816.651 363.531 814.981 362.737C813.078 363.725 809.537 363.864 807.971 362.73C807.346 363.176 806.618 363.469 805.848 363.37C804.35 363.244 802.634 363.618 801.38 362.608C800.98 362.917 800.61 363.347 800.065 363.301C798.598 363.354 797.122 363.469 795.666 363.298C795.205 363.031 794.846 362.642 794.465 362.306C794.377 362.558 794.202 363.065 794.118 363.317C791.457 363.473 788.796 363.447 786.14 363.439C785.922 362.791 786.033 361.838 785.263 361.571C782.797 364.227 784.809 375.192 784.397 385.871C783.429 385.897 782.465 385.912 781.508 385.863C781.188 386.152 780.879 386.45 780.578 386.747C779.602 386.716 778.63 386.701 777.669 386.678C777.226 383.434 777.443 335.183 776.621 329.929C776.823 328.172 776.69 326.403 776.827 324.642C768.122 324.366 758.11 325.011 755.933 324.161C754.553 323.795 753.215 323.22 751.797 323.078C751.279 323.444 751.493 324.069 751.511 324.599C749.422 324.596 747.33 324.557 745.244 324.63C745.198 325.613 745.191 326.601 745.183 327.592C745.348 327.744 745.675 328.046 745.839 328.198C743.54 329.506 745.159 333.054 743.776 337.193C744.002 338.359 744.863 411.724 744.306 413.405C744.501 415.925 744.57 418.456 744.394 420.983C716.853 421.364 727.769 419.817 718.587 423.419C718.529 424.017 718.483 424.619 718.45 425.229C716.792 425.519 715.042 425.142 713.467 425.835C712.026 426.136 710.536 426.038 709.08 426.079C708.943 425.378 709.16 424.543 708.729 423.949C708.119 423.667 707.433 423.647 706.796 423.518C706.41 415.875 707.377 403.73 705.927 392.159C705.648 391.692 700.375 383.243 699.588 383.739C697.552 385.988 696.23 388.801 694.217 391.049C692.318 375.154 685.651 228.97 686.216 219.102C689.17 218.983 692.257 218.789 694.934 217.413C697.124 214.864 696.407 212.847 693.943 210.601C694.838 209.477 695.971 208.573 696.985 207.556C696.417 204.723 697.572 201.983 697.816 199.189C697.427 198.88 696.932 194.84 695.575 193.959C694.755 193.345 693.837 192.892 692.987 192.343C692.369 191.264 692.995 189.69 691.805 188.932C690.806 187.754 689.156 188.265 687.829 187.982C685.044 186.19 686.22 182.94 686.011 177.679C683.113 177.562 683.858 176.61 683.846 148.87C683.704 128.603 682.857 136.329 685.688 128.552C685.77 128.329 683.623 125.577 683.354 125.344C681.558 123.48 682.771 125.364 682.566 116.447C682.86 114.214 682.365 111.991 682.273 109.763C682.184 107.602 682.374 105.425 682.372 103.259L681.455 84.2825C680.713 78.0266 680.103 87.7094 679.962 66.1173C679.854 49.5318 680.502 45.8955 677.827 46.2791C677.382 49.7735 678.018 77.5189 678.037 77.9026C676.679 82.0273 676.218 80.5429 676.36 88.2738C676.372 88.9715 674.648 107.908 675.807 113.127C676.038 114.328 675.775 123.268 675.689 124.482C675.289 126.117 672.963 126.78 673.302 128.667C673.1 130.504 674.953 131.782 674.797 133.611C674.781 138.44 674.159 174.477 674.965 177.465C669.453 179.04 674.086 182.184 673.059 187.997C671.164 188.405 669.228 188.687 667.383 189.27C665.808 190.382 666.643 192.616 665.881 194.137C664.924 195.197 663.483 195.578 662.401 196.463C661.795 198.742 661.772 201.166 662.233 203.48C662.564 205.119 662.042 207.036 663.167 208.447C663.57 209.129 664.493 209.681 664.234 210.588C663.282 213.508 661.634 216.06 668.408 219.089C669.898 219.295 671.419 219.203 672.929 219.359C673.176 222.004 673.013 237.831 673.082 262.458C673.15 264.391 672.319 266.22 672.491 268.16C672.943 282.438 670.77 297.012 671.748 309.72C671.972 313.018 670.807 312.495 670.775 318.11C670.904 344.935 669.85 319.289 670.024 345.935C669.979 354.626 669.115 343.044 669.27 365.376C669.377 367.571 668.275 369.649 668.587 371.852C668.904 374.265 668.275 376.681 668.599 379.094C668.782 380.36 668.66 381.656 668.206 382.856C667.255 385.244 667.979 391.691 667.664 395.892C666.248 402.999 667.452 400.818 667.146 408.093C667.081 409.778 666.082 411.291 666.189 413.002C665.995 417.162 667.47 420.142 661.123 419.048C660.378 411.544 661.543 387.237 660.811 384.182C660.429 383.08 659.191 382.49 658.844 381.388C658.718 380.077 658.798 378.762 658.809 377.451C658.028 377.23 657.254 377.005 656.492 376.769C656.279 371.059 657.628 367.026 652.207 367.369C649.761 367.514 645.68 366.405 645.395 371.219C641.961 371.261 638.507 371.036 635.091 371.315C633.341 372.153 633.601 374.143 633.605 375.759C632.099 375.759 630.593 375.774 629.095 375.805C628.867 386.081 629.523 386.482 629.244 391.231C628.245 391.162 627.254 391.033 626.263 391.109C625.545 381.965 626.748 389.114 625.614 379.758C622.889 377.935 619.484 379.517 616.588 378.267C615.425 378.336 614.297 379.079 613.077 378.736C612.644 376.135 613.359 360.622 612.795 357.589C607.647 356.768 615.458 355.81 597.799 355.954C597.459 371.332 597.997 366.671 594.959 368.41C593.45 368.772 593.114 370.518 593.214 371.852C593.244 372.541 593.484 384.45 592.86 386.84C587.391 388.496 587.278 384.109 583.726 393.049C581.721 393.652 579.328 392.626 577.627 394.086C575.637 395.424 573.091 394.616 570.873 394.544C570.785 392.851 571.337 390.957 570.351 389.451C569.596 389.66 568.856 389.893 568.109 390.106C568.044 388.895 567.915 387.693 567.819 386.493C559.226 384.178 553.296 386.244 551.085 386.558C551.077 387.374 551.062 388.193 551.043 389.016C550.032 388.857 549.026 388.753 548.012 388.73C548.032 393.198 548.088 397.665 547.993 402.133C506.222 401.915 504.937 402.453 504.014 401.858C503.267 400.647 503.016 400.31 503.287 386.322C503.31 384.763 504.964 383.402 504.136 381.843C503.71 380.791 504.194 379.651 503.824 378.587C501.815 378.633 499.806 378.591 497.801 378.599C496.112 378.546 494.568 379.437 492.883 379.384C490.066 379.384 487.249 379.323 484.436 379.407C486.546 379.787 494.002 379.398 496.337 379.243C493.844 379.986 491.222 379.448 488.675 379.613C486.647 379.624 484.528 379.914 482.599 379.152C483.071 379.018 483.559 378.915 484.047 378.809C481.608 378.511 479.149 378.611 476.702 378.618C476.485 378.942 476.279 379.273 476.073 379.609C476.672 383.032 476.279 386.546 476.336 390.008C474.754 389.123 472.94 389.554 471.282 389.912C470.131 390.286 469.231 391.155 468.347 391.944C467.073 393.041 467.603 394.989 466.548 396.235C465.705 397.356 465.465 398.866 464.439 399.849C461.246 400.173 453.144 400.231 451.505 399.948C450.748 396.182 450.539 396.69 446.165 395.347C443.873 390.511 444 390.205 442.879 389.656C432.64 387.858 432.992 387.48 431.051 389.668C430.456 391.608 431.508 393.521 431.401 395.477C431.363 400.524 431.431 405.57 431.367 410.621C430.696 410.613 430.029 410.606 429.373 410.598C429.324 409.843 429.293 409.1 429.259 408.356C405.841 408.286 418.777 408.862 403.372 408.337C403.433 406.1 403.559 403.847 403.201 401.629C402.938 399.959 403.308 398.278 403.137 396.613C402.607 395.172 401.829 393.826 401.494 392.321C398.406 392.286 395.314 392.431 392.234 392.275C390.404 391.608 389.23 389.782 388.555 388.033C382.973 386.643 381.886 388.744 380.043 388.882C378.808 388.41 378.972 386.824 378.716 385.761C378.057 385.635 377.405 385.509 376.753 385.391C375.655 382.482 375.987 379.372 375.933 376.338C374.374 376.296 372.807 376.407 371.26 376.246C370.219 375.586 369.602 374.47 368.66 373.703C365.916 372.792 363.022 373.768 360.213 373.428C357.884 373.131 355.555 373.455 353.23 373.524C352.833 374.599 352.166 375.537 351.659 376.554C351.088 379.672 351.705 382.828 351.373 385.958C351.036 392.349 353.702 397.497 345.967 396.07C346.127 386.494 347.665 390.276 324.899 389.251C324.637 385.823 325.76 377.523 322.665 375.96C320.869 375.682 319.044 375.846 317.249 375.583C317.112 374.565 316.974 373.555 316.841 372.541C315.003 372.037 313.326 371.207 311.881 369.971C295.339 363.984 300.658 370.856 299.252 374.442C298.603 375.651 297.121 375.628 295.951 375.853C294.884 378.974 294.727 382.314 295.101 385.577C295.432 387.692 294.076 389.567 294.144 391.656C294.268 417.748 294.562 417.663 292.887 418.121C291.267 418.578 289.513 418.776 287.874 418.3C286.749 417.885 285.877 419.093 284.759 419.005C276.614 419.16 273.921 418.084 273.617 421.749C273.351 426.979 274.2 432.24 273.537 437.453C271.848 436.886 270.606 435.037 270.75 433.257C270.683 407.353 272.003 359.051 271.551 355.81C271.478 354.53 270.861 353.341 270.914 352.052C270.922 350.581 270.613 349.14 270.369 347.699C268.028 346.789 265.459 347.737 263.042 347.246C261.544 346.437 261.468 344.623 261.197 343.148C259.668 342.694 258.079 342.771 256.508 342.775C254.633 342.851 252.967 341.189 251.092 342.02C250.871 343 250.71 344.022 250.231 344.921C249.544 345.641 248.538 345.908 247.677 346.35C245.68 347.204 244.151 348.923 241.993 349.43C239.495 350.633 239.791 348.615 239.45 355.387C238.813 364.618 240.159 362.383 239.629 372.727C239.542 373.242 239.999 373.577 240.278 373.955C239.46 375.15 239.525 375.513 239.573 382.234C239.542 382.771 239.92 383.202 240.133 383.671C239.904 384.052 239.679 384.433 239.454 384.822C239.687 385.192 239.927 385.569 240.167 385.95C239.123 390.383 239.222 394.968 239.252 399.489C239.675 399.683 240.102 399.881 240.533 400.083C240.129 400.457 239.58 400.724 239.34 401.238C239.469 401.692 239.733 402.096 239.969 402.511C238.371 404.96 239.389 412.758 239.119 414.194C238.737 416.809 239.005 419.447 239.02 422.077C235.238 422.329 231.446 422.024 227.664 422.222C227.557 422.329 227.344 422.546 227.238 422.653C227.032 424.121 227.554 425.797 226.433 427.002C224.107 426.082 224.505 425.234 220.208 423.396C220.167 419.942 220.281 416.489 220.17 413.04C219.85 410.398 219.85 407.726 220.029 405.077C220.071 404.831 220.503 376.967 220.139 372.216C220.025 370.848 218.946 369.791 218.794 368.435C218.474 366.273 218.931 364.109 218.89 361.944C218.89 360.465 218.692 358.997 218.649 357.522C212.433 355.256 201.345 357.911 198.194 355.757C198.107 354.633 198.064 353.501 198.186 352.38C198.456 350.543 197.934 348.721 198.083 346.88C191.371 346.068 193.375 344.258 185.297 345.641C185.335 346.612 185.416 347.581 185.598 348.541C184.235 349.756 185.52 349.676 177.341 349.593C177.182 351.427 177.25 353.268 177.223 355.109C174.913 355.349 172.553 354.923 170.274 355.368C169.295 356.142 169.5 357.712 169.222 358.844C168.494 358.951 167.77 359.058 167.049 359.18C166.897 359.996 167.377 360.568 168.048 360.96C167.709 361.318 167.313 361.635 167.057 362.069C167.049 364.021 167.423 365.976 167.149 367.928C166.037 369.436 163.691 368.734 157.935 368.942C157.894 370.676 157.905 372.41 157.886 374.145C157.139 374.24 156.391 374.351 155.652 374.484C155.641 374.739 155.61 375.25 155.599 375.502C156.384 375.623 157.173 375.76 157.963 375.894C157.921 376.607 157.898 377.323 157.887 378.044C155.958 378.07 154.029 378.021 152.104 378.105C152.882 392.431 151.803 389.147 150.994 391.392C151.389 395.554 150.322 411.028 150.83 417.22C149.919 417.464 148.97 417.518 148.109 417.083C147.949 416.066 147.419 415.223 146.53 414.705C147.024 392.043 146.204 393.998 146.988 392.836C146.477 391.613 146.782 390.286 146.831 389.013C146.953 385.148 146.492 381.283 146.991 377.426C143.793 376.53 140.458 376.495 137.164 376.484C137.129 375.482 137.111 374.479 137.095 373.48C118.912 373.48 112.743 373.019 115.984 374.761C114.313 377.374 116.23 376.661 115.184 382.807C115.569 383.23 115.958 383.653 116.343 384.088C115.801 384.145 114.814 384.008 114.902 384.835C115.287 389.093 114.657 406.638 115.112 410.732C115.378 412.714 114.593 414.62 114.506 416.587L114.448 436.533C115.459 436.545 116.473 436.568 117.479 436.698C115.23 437.654 112.797 436.77 110.453 436.862C110.255 436.431 110.061 436.001 109.866 435.578C102.829 438.579 102.475 435.887 99.4517 436.054C98.5137 435.985 97.4775 436.309 96.6306 435.783C93.524 433.684 92.9811 437.674 86.0602 435.958C86.0602 435.958 86.3097 428.559 86.3578 419.362C78.6056 417.89 70.3544 418.779 66.0058 418.272C64.7709 411.389 65.9369 390.013 65.9254 389.947C66.2173 382.169 65.2449 380.153 66.2876 378.1C64.0996 378.169 61.9648 377.681 59.8263 377.315C57.4397 377.281 55.0388 377.388 52.7096 376.755C50.3768 376.869 48.0361 376.778 45.7033 376.888C41.9713 377.59 38.1591 377.182 34.3856 377.277C35.1844 380.097 34.6021 395.036 34.572 395.417C34.4035 397.191 35.9747 400.736 32.7154 401.33C30.2607 401.2 27.7945 401.375 25.3505 401.051C23.4179 400.808 21.5003 401.2 19.5719 401.219C19.1503 396.091 20.5286 370.516 20.449 367.676C20.5408 366.841 19.7777 366.258 19.0119 366.212C13.8543 365.302 8.55976 366.43 3.41368 365.412C0.0403266 365.878 -3.37534 365.409 -6.74869 365.832L-8.16644 440.358C-8.19369 440.365 -8.22094 440.373 -8.24819 440.379V441.096H-18.2922M34.098 432.989C32.8932 433.435 31.6849 432.806 30.4765 432.741C26.779 432.455 23.0701 432.55 19.3683 432.611C18.8964 430.891 19.5497 410.077 19.7039 409.439C20.2769 408.627 20.7552 409.2 32.0205 409.031C32.7104 408.985 33.3852 409.134 34.0256 409.378C34.4408 415.45 33.8427 422.389 34.098 432.989ZM1649.87 414.334C1651.83 414.398 1653.85 414.052 1655.79 414.315L1656.06 414.65C1653.99 414.49 1651.91 414.467 1649.87 414.334Z" stroke="black" stroke-width="2"/>
</g>
</g>
<defs>
<clipPath id="clip0">
<rect width="1732" height="538" fill="white"/>
</clipPath>
<clipPath id="clip1">
<rect width="1876" height="571" fill="white" transform="translate(0 60)"/>
</clipPath>
</defs>
</svg>
